<svg id="Capa_1" enable-background="new 0 0 512 512" height="512" viewBox="0 0 512 512" width="512" xmlns="http://www.w3.org/2000/svg"><g><g><path clip-rule="evenodd" d="m338.467 319.179c-20.18-6.631-20.01-12.129-23.383-30.973-8.304 5.526-17.119 10.145-26.217 13.517-21.767 8.076-38.121 8.048-59.831-.057-5.045-1.87-9.977-4.137-14.795-6.688v62.881c41.494 25.391 99.001 12.498 124.226-38.68z" fill="#ffd0c7" fill-rule="evenodd"/></g><g><path clip-rule="evenodd" d="m214.242 294.979v-36.414c0-11.165-9.155-20.318-20.35-20.318h-38.291-55.07c-11.167 0-20.322 9.153-20.322 20.318v102.299l8.531 2.692c8.474 2.664 16.127 7.254 16.127 16.096v13.432c0 13.914 1.304 14.282 12.357 14.282h35.91c3.798 0 6.916 3.117 6.916 6.914v44.774h33.841c11.195 0 20.35-9.153 20.35-20.346v-80.848-62.881z" fill="#b5cdcd" fill-rule="evenodd"/></g><g><path clip-rule="evenodd" d="m153.135 407.366h-35.91c-11.054 0-12.357-.368-12.357-14.282v-13.432c0-8.841-7.653-13.432-16.127-16.096l-8.531-2.692-7.709-2.409c-11.394-3.571-14.143 2.749-13.293 15.756v40.07 57.27c0 16.691 13.661 30.378 30.355 30.378h70.488v-42.875-44.774c0-3.797-3.118-6.914-6.916-6.914z" fill="#ffd0c7" fill-rule="evenodd"/></g><g><path clip-rule="evenodd" d="m450.647 461.122c-12.386-55.91-16.325-116.043-99.709-138.288-4.847-1.304-8.956-2.494-12.471-3.656-25.225 51.178-82.732 64.072-124.226 38.681v80.847c0 11.193-9.155 20.346-20.35 20.346h-33.841v42.875h259.505c30.129.002 37.923-9.973 31.092-40.805z" fill="#ccf5fc" fill-rule="evenodd"/></g><g><path clip-rule="evenodd" d="m378.742 145.837c-70.318 27.091-171.643-51.546-239.467-.538v40.58c0 16.691 6.065 35.054 16.325 52.368h38.291c11.195 0 20.35 9.153 20.35 20.318v36.414c4.818 2.55 9.75 4.817 14.795 6.688 21.71 8.105 38.064 8.133 59.831.057 9.098-3.372 17.913-7.991 26.217-13.517 36.76-24.455 63.658-67.075 63.658-102.327z" fill="#ffdcd5" fill-rule="evenodd"/></g><g><path clip-rule="evenodd" d="m368.936 79.867c16.042-40.551 24.516-55.655 19.613-69.796-66.747 37.632-70.97 10.315-116.233 6.064-80.436-7.595-137.037 34.062-133.04 129.163 67.824-51.008 169.149 27.629 239.467.538 27.096-10.428 49.6-36.527 63.799-91.814 1.332-12.269-44.413 28.792-73.606 25.845z" fill="#ffda8f" fill-rule="evenodd"/></g><g><path d="m460.48 458.944c-1.178-5.318-2.305-10.803-3.396-16.109-5.321-25.897-10.822-52.676-25.104-75.825-16.388-26.564-42.048-44.196-78.447-53.907-3.956-1.056-7.864-2.15-11.373-3.286-.399-.158-.802-.294-1.209-.398-5.039-1.694-9.109-3.483-11.044-5.383-1.82-1.787-2.63-4.93-3.787-11.279 36.215-26.444 62.692-69.311 62.692-106.878v-33.439c29.807-14.412 50.653-45.961 63.483-95.911.12-.466.206-.94.258-1.419.519-4.779-1.39-9.088-5.108-11.526-7.293-4.786-14.733-.55-29.559 7.893-9.328 5.312-21.883 12.462-33.155 16.114.46-1.129.909-2.229 1.347-3.303 11.491-28.169 17.259-42.307 11.985-57.517-.977-2.821-3.157-5.063-5.949-6.12-2.791-1.057-5.91-.82-8.511.646-42.779 24.117-55.822 19.691-75.564 12.989-9.379-3.184-20.009-6.792-34.776-8.178-45.088-4.26-82.372 6.262-107.823 30.421-25.628 24.324-38.153 61.986-36.236 108.921v40.427c0 13.377 3.379 27.769 9.852 42.296h-38.525c-16.758 0-30.393 13.633-30.393 30.39v89.063c-5.494-.734-10.153.366-13.892 3.307-7.193 5.655-7.609 15.526-7.109 23.597v97.02c0 22.304 18.135 40.449 40.426 40.449h70.488 70.375c5.562 0 10.071-4.509 10.071-10.071s-4.509-10.071-10.071-10.071h-60.304v-22.733h23.769c16.774 0 30.422-13.645 30.422-30.417v-64.681c11.114 4.311 22.929 6.517 34.8 6.517 8.921 0 17.876-1.243 26.582-3.764 24.157-6.996 44.378-23.038 57.703-45.571 1.584.446 3.221.895 4.943 1.355 69.325 18.495 78.449 62.904 89.013 114.324 1.105 5.38 2.248 10.942 3.46 16.411 2.748 12.405 2.771 20.402.067 23.769-2.55 3.177-9.726 4.788-21.327 4.788h-46.813v-34.929c0-5.562-4.509-10.071-10.071-10.071s-10.071 4.509-10.071 10.071v34.929h-32.357c-5.562 0-10.071 4.509-10.071 10.071s4.511 10.074 10.072 10.074h99.312c12.638 0 28.268-1.401 37.034-12.322 8.972-11.175 6.792-27.639 3.891-40.734zm-281.174-407.805c21.106-20.034 52.939-28.673 92.068-24.977 12.42 1.167 21.454 4.233 30.19 7.199 19.844 6.735 37.262 12.652 77.012-6.659-1.811 6.923-5.556 16.273-11.147 29.979-2.335 5.723-4.982 12.21-7.858 19.482-1.162 2.936-.88 6.245.762 8.941 1.641 2.696 4.451 4.467 7.592 4.785 19.661 1.981 42.808-11.156 59.762-20.811-12.972 39.467-31.737 61.652-58.3 69.3-27.478 7.914-60.466.008-95.387-8.36-25.81-6.184-52.082-12.479-77.212-12.479-16.462 0-32.438 2.703-47.467 9.906 1.422-33.122 11.476-58.737 29.985-76.306zm-110.027 420.412v-97.34c0-.219-.008-.438-.021-.657-.169-2.585-.141-4.369-.048-5.575.088.026.179.055.272.084l16.238 5.1c6.023 1.893 9.075 4.076 9.075 6.488v13.432c0 8.282.34 14.509 4.739 19.227 4.78 5.127 11.343 5.127 17.69 5.127h32.754v74.42h-60.416c-11.184 0-20.283-9.109-20.283-20.306zm134.892-176.504v.053 143.608c0 5.665-4.611 10.274-10.279 10.274h-23.769v-34.702c0-9.365-7.621-16.985-16.987-16.985h-35.91c-.571 0-1.388 0-2.217-.012-.043-1.036-.069-2.402-.069-4.2v-13.432c0-8.403-4.021-19.684-23.181-25.704l-1.477-.464v-94.919c0-5.651 4.598-10.247 10.25-10.247h55.064c.005 0 .01.001.015.001s.01-.001.015-.001h38.266c5.668 0 10.279 4.596 10.279 10.247zm75.922 62.386c-18.613 5.39-38.639 3.355-55.78-5.482v-41.32c.399.153.804.323 1.201.47 12.05 4.499 22.768 6.746 33.493 6.746 10.675 0 21.357-2.228 33.362-6.682 5.301-1.966 10.517-4.33 15.615-7.028 1.468 5.447 3.623 10.157 7.81 14.269 2.263 2.222 4.976 4.096 8.229 5.784-10.668 16.38-25.947 28.036-43.93 33.243zm5.272-65.152c-19.505 7.236-33.324 7.223-52.827-.058-2.675-.992-5.429-2.17-8.224-3.483v-30.176c0-16.757-13.647-30.39-30.422-30.39h-32.398c-7.853-14.663-12.147-29.511-12.147-42.296v-35.332c33.152-21.723 75.364-11.626 119.958-.941 25.029 5.996 50.65 12.136 74.909 12.136 8.341 0 16.518-.742 24.457-2.449v26.587c0 40.221-38.927 89.941-83.306 106.402z"/><path d="m127.939 283.518c-5.562 0-10.071 4.509-10.071 10.071v16.039c0 5.562 4.509 10.071 10.071 10.071s10.071-4.509 10.071-10.071v-16.038c0-5.562-4.509-10.072-10.071-10.072z"/><path d="m300.573 182.693c-5.562 0-10.071 4.509-10.071 10.071v.113c0 5.562 4.509 10.071 10.071 10.071s10.071-4.509 10.071-10.071v-.113c.001-5.561-4.509-10.071-10.071-10.071z"/><path d="m213.788 182.693c-5.562 0-10.071 4.509-10.071 10.071v.113c0 5.562 4.509 10.071 10.071 10.071s10.071-4.509 10.071-10.071v-.113c0-5.561-4.509-10.071-10.071-10.071z"/><path d="m275.348 491.857c-5.562 0-10.071 4.509-10.071 10.071s4.509 10.072 10.071 10.072h.028c5.562 0 10.057-4.509 10.057-10.071s-4.523-10.072-10.085-10.072z"/></g></g></svg>